# xmcd CD database file
# Copyright (C) 1993-1998 Ti Kan
#
# Track frame offsets:
#	150
#	18087
#	35627
#	50935
#	64077
#	80440
#	95502
#	116550
#	127532
#	142455
#	163282
#	173117
#
# Disc length: 2511 seconds
#
# Revision: 0
# Processed by: cddbd v1.4b41PL1 Copyright (c) Steve Scherf et al.
# Submitted via: CDmax 1.5.3
#
DISCID=a709cd0c
DTITLE=Gary Primich
DYEAR=1900
DGENRE=
TTITLE0=Sweet Fine Angel
TTITLE1=Early in the Morning
TTITLE2=The Sound of Money Talking
TTITLE3=Real Gone Lover
TTITLE4=Hustler
TTITLE5=Creepin'
TTITLE6=Cadillac Blues
TTITLE7=I Can't Stop Loving You
TTITLE8=That Girl Radiates That Charm
TTITLE9=I Want That Thang
TTITLE10=Down the Road
TTITLE11=Cookin' at Sam's
EXTD=
EXTT0=
EXTT1=
EXTT2=
EXTT3=
EXTT4=
EXTT5=
EXTT6=
EXTT7=
EXTT8=
EXTT9=
EXTT10=
EXTT11=
PLAYORDER=
